<svg width="520" height="360" viewBox="0 0 520 360" fill="none" xmlns="http://www.w3.org/2000/svg">
  <rect width="520" height="360" rx="32" fill="#10171F"/>
  <rect x="28" y="28" width="464" height="304" rx="24" fill="url(#paint0_linear)"/>
  <circle cx="96" cy="92" r="30" fill="#D9B36C" fill-opacity="0.18"/>
  <circle cx="96" cy="92" r="16" fill="#D9B36C"/>
  <rect x="150" y="72" width="150" height="14" rx="7" fill="#EAF0F6"/>
  <rect x="150" y="98" width="112" height="10" rx="5" fill="#8DB0C7" fill-opacity="0.8"/>
  <rect x="60" y="160" width="166" height="126" rx="18" fill="#15202C"/>
  <rect x="250" y="160" width="210" height="126" rx="18" fill="#15202C"/>
  <path d="M90 250L121 214L150 232L190 188" stroke="#7C9CC6" stroke-width="10" stroke-linecap="round" stroke-linejoin="round"/>
  <circle cx="90" cy="250" r="8" fill="#D9B36C"/>
  <circle cx="121" cy="214" r="8" fill="#D9B36C"/>
  <circle cx="150" cy="232" r="8" fill="#D9B36C"/>
  <circle cx="190" cy="188" r="8" fill="#D9B36C"/>
  <rect x="276" y="184" width="28" height="78" rx="10" fill="#7C9CC6"/>
  <rect x="318" y="210" width="28" height="52" rx="10" fill="#8DB0C7"/>
  <rect x="360" y="196" width="28" height="66" rx="10" fill="#D9B36C"/>
  <rect x="402" y="174" width="28" height="88" rx="10" fill="#EAF0F6"/>
  <defs>
    <linearGradient id="paint0_linear" x1="28" y1="28" x2="492" y2="332" gradientUnits="userSpaceOnUse">
      <stop stop-color="#18222E"/>
      <stop offset="1" stop-color="#121A23"/>
    </linearGradient>
  </defs>
</svg>
